<svg width="37" height="36" viewBox="0 0 37 36" fill="none" xmlns="http://www.w3.org/2000/svg">
<path d="M19 28C17.6333 28 16.3417 27.7375 15.125 27.2125C13.9083 26.6875 12.8458 25.9708 11.9375 25.0625C11.0292 24.1542 10.3125 23.0917 9.7875 21.875C9.2625 20.6583 9 19.3667 9 18C9 16.6167 9.2625 15.3208 9.7875 14.1125C10.3125 12.9042 11.0292 11.8458 11.9375 10.9375C12.8458 10.0292 13.9083 9.3125 15.125 8.7875C16.3417 8.2625 17.6333 8 19 8C20.3833 8 21.6792 8.2625 22.8875 8.7875C24.0958 9.3125 25.1542 10.0292 26.0625 10.9375C26.9708 11.8458 27.6875 12.9042 28.2125 14.1125C28.7375 15.3208 29 16.6167 29 18C29 19.3667 28.7375 20.6583 28.2125 21.875C27.6875 23.0917 26.9708 24.1542 26.0625 25.0625C25.1542 25.9708 24.0958 26.6875 22.8875 27.2125C21.6792 27.7375 20.3833 28 19 28ZM19 25.95C19.4333 25.35 19.8083 24.725 20.125 24.075C20.4417 23.425 20.7 22.7333 20.9 22H17.1C17.3 22.7333 17.5583 23.425 17.875 24.075C18.1917 24.725 18.5667 25.35 19 25.95ZM16.4 25.55C16.1 25 15.8375 24.4292 15.6125 23.8375C15.3875 23.2458 15.2 22.6333 15.05 22H12.1C12.5833 22.8333 13.1875 23.5583 13.9125 24.175C14.6375 24.7917 15.4667 25.25 16.4 25.55ZM21.6 25.55C22.5333 25.25 23.3625 24.7917 24.0875 24.175C24.8125 23.5583 25.4167 22.8333 25.9 22H22.95C22.8 22.6333 22.6125 23.2458 22.3875 23.8375C22.1625 24.4292 21.9 25 21.6 25.55ZM11.25 20H14.65C14.6 19.6667 14.5625 19.3375 14.5375 19.0125C14.5125 18.6875 14.5 18.35 14.5 18C14.5 17.65 14.5125 17.3125 14.5375 16.9875C14.5625 16.6625 14.6 16.3333 14.65 16H11.25C11.1667 16.3333 11.1042 16.6625 11.0625 16.9875C11.0208 17.3125 11 17.65 11 18C11 18.35 11.0208 18.6875 11.0625 19.0125C11.1042 19.3375 11.1667 19.6667 11.25 20ZM16.65 20H21.35C21.4 19.6667 21.4375 19.3375 21.4625 19.0125C21.4875 18.6875 21.5 18.35 21.5 18C21.5 17.65 21.4875 17.3125 21.4625 16.9875C21.4375 16.6625 21.4 16.3333 21.35 16H16.65C16.6 16.3333 16.5625 16.6625 16.5375 16.9875C16.5125 17.3125 16.5 17.65 16.5 18C16.5 18.35 16.5125 18.6875 16.5375 19.0125C16.5625 19.3375 16.6 19.6667 16.65 20ZM23.35 20H26.75C26.8333 19.6667 26.8958 19.3375 26.9375 19.0125C26.9792 18.6875 27 18.35 27 18C27 17.65 26.9792 17.3125 26.9375 16.9875C26.8958 16.6625 26.8333 16.3333 26.75 16H23.35C23.4 16.3333 23.4375 16.6625 23.4625 16.9875C23.4875 17.3125 23.5 17.65 23.5 18C23.5 18.35 23.4875 18.6875 23.4625 19.0125C23.4375 19.3375 23.4 19.6667 23.35 20ZM22.95 14H25.9C25.4167 13.1667 24.8125 12.4417 24.0875 11.825C23.3625 11.2083 22.5333 10.75 21.6 10.45C21.9 11 22.1625 11.5708 22.3875 12.1625C22.6125 12.7542 22.8 13.3667 22.95 14ZM17.1 14H20.9C20.7 13.2667 20.4417 12.575 20.125 11.925C19.8083 11.275 19.4333 10.65 19 10.05C18.5667 10.65 18.1917 11.275 17.875 11.925C17.5583 12.575 17.3 13.2667 17.1 14ZM12.1 14H15.05C15.2 13.3667 15.3875 12.7542 15.6125 12.1625C15.8375 11.5708 16.1 11 16.4 10.45C15.4667 10.75 14.6375 11.2083 13.9125 11.825C13.1875 12.4417 12.5833 13.1667 12.1 14Z" fill="#6B7280"/>
</svg>
