<svg width="37" height="36" viewBox="0 0 37 36" fill="none" xmlns="http://www.w3.org/2000/svg">
<path d="M17.541 25.5C17.6873 25.7533 17.8977 25.9637 18.1511 26.11C18.4044 26.2563 18.6918 26.3333 18.9843 26.3333C19.2769 26.3333 19.5643 26.2563 19.8176 26.11C20.071 25.9637 20.2814 25.7533 20.4277 25.5" stroke="#6B7280" stroke-width="2" stroke-linecap="round" stroke-linejoin="round"/>
<path d="M11.7027 20.7717C11.5938 20.891 11.522 21.0394 11.4959 21.1988C11.4698 21.3582 11.4906 21.5217 11.5558 21.6695C11.621 21.8173 11.7277 21.943 11.8629 22.0312C11.9982 22.1195 12.1562 22.1666 12.3177 22.1667H25.651C25.8125 22.1667 25.9706 22.1199 26.1059 22.0318C26.2413 21.9437 26.3481 21.8181 26.4134 21.6704C26.4788 21.5227 26.4998 21.3592 26.4739 21.1998C26.448 21.0404 26.3764 20.892 26.2677 20.7725C25.1594 19.63 23.9844 18.4158 23.9844 14.6667C23.9844 13.3406 23.4576 12.0688 22.5199 11.1311C21.5822 10.1935 20.3105 9.66667 18.9844 9.66667C17.6583 9.66667 16.3865 10.1935 15.4488 11.1311C14.5112 12.0688 13.9844 13.3406 13.9844 14.6667C13.9844 18.4158 12.8085 19.63 11.7027 20.7717Z" stroke="#6B7280" stroke-width="2" stroke-linecap="round" stroke-linejoin="round"/>
</svg>
