<svg width="80" height="24" viewBox="0 0 80 24" fill="none" xmlns="http://www.w3.org/2000/svg">
<path d="M0 12C0 6.47715 4.47715 2 10 2H70C75.5229 2 80 6.47715 80 12C80 17.5228 75.5229 22 70 22H10C4.47715 22 0 17.5228 0 12Z" fill="#FEF3C7"/>
<path d="M16 10L14 12L18 16" stroke="#92400E" stroke-width="2" stroke-linecap="round" stroke-linejoin="round"/>
<path d="M10 12L12 14L16 10" stroke="#92400E" stroke-width="2" stroke-linecap="round" stroke-linejoin="round"/>
<path d="M24.2656 16V8.58182H26.2031C26.6497 8.58182 27.0228 8.65815 27.3225 8.81081C27.6246 8.96346 27.8509 9.17355 28.0014 9.44107C28.1518 9.70859 28.2271 10.0178 28.2271 10.3693C28.2271 10.6584 28.1782 10.9098 28.0804 11.1236C27.9826 11.3375 27.8509 11.5149 27.6854 11.6558C27.5199 11.7967 27.3371 11.8986 27.1371 11.9616V12.0195C27.3613 12.0437 27.5771 12.1236 27.7845 12.2592C28.0014 12.3924 28.1807 12.5825 28.3225 12.8295C28.4643 13.0765 28.5352 13.3804 28.5352 13.7415C28.5352 14.1267 28.4571 14.4671 28.301 14.7628C28.1448 15.0585 27.9034 15.2917 27.5771 15.4623C27.2507 15.633 26.8297 15.7183 26.314 15.7183H24.2656V16ZM25.3847 15.0581H26.2176C26.5804 15.0581 26.8584 14.9854 27.0517 14.8399C27.2449 14.6944 27.3416 14.4916 27.3416 14.2315C27.3416 14.0293 27.2908 13.8561 27.1892 13.7116C27.0901 13.5671 26.9535 13.4576 26.7795 13.383C26.6078 13.3084 26.4129 13.2711 26.1947 13.2711H25.3847V15.0581ZM25.3847 12.6615H26.1007C26.2796 12.6615 26.4404 12.6303 26.5831 12.5679C26.7258 12.5055 26.8391 12.4119 26.9228 12.2871C27.0066 12.1624 27.0484 12.0065 27.0484 11.8195C27.0484 11.5691 26.9577 11.3736 26.7762 11.2329C26.5947 11.0898 26.3466 11.0183 26.032 11.0183H25.3847V12.6615ZM31.9453 16.1123C31.4237 16.1123 30.9685 15.9928 30.5797 15.7537C30.1909 15.5146 29.8891 15.1802 29.6742 14.7504C29.4593 14.3205 29.3518 13.8183 29.3518 13.2435C29.3518 12.6664 29.4593 12.1617 29.6742 11.7295C29.8891 11.2972 30.1909 10.9616 30.5797 10.7225C30.9685 10.4835 31.4237 10.3639 31.9453 10.3639C32.4669 10.3639 32.9221 10.4835 33.3108 10.7225C33.6996 10.9616 34.0015 11.2972 34.2164 11.7295C34.4313 12.1617 34.5387 12.6664 34.5387 13.2435C34.5387 13.8183 34.4313 14.3205 34.2164 14.7504C34.0015 15.1802 33.6996 15.5146 33.3108 15.7537C32.9221 15.9928 32.4669 16.1123 31.9453 16.1123ZM31.9489 15.2031C32.287 15.2031 32.5671 15.1138 32.7892 14.9351C33.0114 14.7564 33.1756 14.5185 33.2819 14.2215C33.3905 13.9245 33.4449 13.5973 33.4449 13.2399C33.4449 12.8849 33.3905 12.5589 33.2819 12.2619C33.1756 11.9625 33.0114 11.7222 32.7892 11.5411C32.5671 11.36 32.287 11.2695 31.9489 11.2695C31.6084 11.2695 31.3259 11.36 31.1013 11.5411C30.8792 11.7222 30.7137 11.9625 30.6051 12.2619C30.4988 12.5589 30.4457 12.8849 30.4457 13.2399C30.4457 13.5973 30.4988 13.9245 30.6051 14.2215C30.7137 14.5185 30.8792 14.7564 31.1013 14.9351C31.3259 15.1138 31.6084 15.2031 31.9489 15.2031ZM35.7476 18.0864V10.4364H36.8053V11.3383H36.8959C36.9586 11.2224 37.0492 11.0884 37.1675 10.9362C37.2859 10.7841 37.4501 10.6513 37.6601 10.5378C37.8702 10.4219 38.1479 10.3639 38.4932 10.3639C38.9424 10.3639 39.3432 10.4774 39.6958 10.7044C40.0484 10.9314 40.3248 11.2586 40.5253 11.686C40.7281 12.1134 40.8295 12.6278 40.8295 13.229C40.8295 13.8303 40.7293 14.3459 40.5289 14.7757C40.3285 15.2031 40.0532 15.5327 39.703 15.7646C39.3529 15.994 38.9533 16.1087 38.5041 16.1087C38.166 16.1087 37.8895 16.0519 37.6746 15.9384C37.4621 15.8249 37.2955 15.6921 37.1748 15.54C37.054 15.3879 36.9611 15.2526 36.8959 15.1343H36.8307V18.0864H35.7476ZM36.8089 13.2182C36.8089 13.6094 36.8657 13.9523 36.9792 14.2469C37.0927 14.5415 37.2569 14.7721 37.4718 14.9387C37.6867 15.1029 37.9499 15.185 38.2614 15.185C38.585 15.185 38.8555 15.0993 39.0728 14.9278C39.2901 14.754 39.4543 14.5185 39.5654 14.2215C39.6789 13.9245 39.7356 13.5901 39.7356 13.2182C39.7356 12.8511 39.6801 12.5215 39.569 12.2293C39.4604 11.9371 39.2961 11.7065 39.0764 11.5375C38.8591 11.3685 38.5874 11.2839 38.2614 11.2839C37.9475 11.2839 37.6819 11.3648 37.4645 11.5266C37.2496 11.6884 37.0866 11.9142 36.9756 12.204C36.8645 12.4937 36.8089 12.8318 36.8089 13.2182ZM42.3311 16V10.4364H43.3924V11.2984H43.4468C43.5313 11.0259 43.6883 10.8026 43.9178 10.6284C44.1497 10.4542 44.4385 10.3671 44.7841 10.3671C44.8517 10.3671 44.9314 10.3695 45.0232 10.3743C45.1174 10.3791 45.1909 10.3851 45.2441 10.3923V11.4143C45.2007 11.4023 45.1234 11.389 45.0123 11.3745C44.9012 11.3576 44.7889 11.3491 44.6754 11.3491C44.4194 11.3491 44.1912 11.4035 43.9909 11.5121C43.7929 11.6184 43.636 11.7669 43.52 11.9577C43.4041 12.146 43.3462 12.3609 43.3462 12.6024V16H42.3311ZM48.7622 16.1123C48.2406 16.1123 47.7854 15.9928 47.3966 15.7537C47.0078 15.5146 46.706 15.1802 46.4911 14.7504C46.2762 14.3205 46.1687 13.8183 46.1687 13.2435C46.1687 12.6664 46.2762 12.1617 46.4911 11.7295C46.706 11.2972 47.0078 10.9616 47.3966 10.7225C47.7854 10.4835 48.2406 10.3639 48.7622 10.3639C49.2838 10.3639 49.739 10.4835 50.1277 10.7225C50.5165 10.9616 50.8184 11.2972 51.0333 11.7295C51.2482 12.1617 51.3556 12.6664 51.3556 13.2435C51.3556 13.8183 51.2482 14.3205 51.0333 14.7504C50.8184 15.1802 50.5165 15.5146 50.1277 15.7537C49.739 15.9928 49.2838 16.1123 48.7622 16.1123ZM48.7658 15.2031C49.1039 15.2031 49.384 15.1138 49.6061 14.9351C49.8283 14.7564 49.9925 14.5185 50.0988 14.2215C50.2074 13.9245 50.2618 13.5973 50.2618 13.2399C50.2618 12.8849 50.2074 12.5589 50.0988 12.2619C49.9925 11.9625 49.8283 11.7222 49.6061 11.5411C49.384 11.36 49.1039 11.2695 48.7658 11.2695C48.4253 11.2695 48.1428 11.36 47.9182 11.5411C47.6961 11.7222 47.5306 11.9625 47.422 12.2619C47.3157 12.5589 47.2626 12.8849 47.2626 13.2399C47.2626 13.5973 47.3157 13.9245 47.422 14.2215C47.5306 14.5185 47.6961 14.7564 47.9182 14.9351C48.1428 15.1138 48.4253 15.2031 48.7658 15.2031ZM53.4385 16.1123C52.9169 16.1123 52.4617 15.9928 52.0729 15.7537C51.6841 15.5146 51.3823 15.1802 51.1674 14.7504C50.9525 14.3205 50.845 13.8183 50.845 13.2435C50.845 12.6664 50.9525 12.1617 51.1674 11.7295C51.3823 11.2972 51.6841 10.9616 52.0729 10.7225C52.4617 10.4835 52.9169 10.3639 53.4385 10.3639C53.9601 10.3639 54.4153 10.4835 54.804 10.7225C55.1928 10.9616 55.4947 11.2972 55.7096 11.7295C55.9245 12.1617 56.0319 12.6664 56.0319 13.2435C56.0319 13.8183 55.9245 14.3205 55.7096 14.7504C55.4947 15.1802 55.1928 15.5146 54.804 15.7537C54.4153 15.9928 53.9601 16.1123 53.4385 16.1123ZM53.4421 15.2031C53.7802 15.2031 54.0603 15.1138 54.2824 14.9351C54.5046 14.7564 54.6688 14.5185 54.7751 14.2215C54.8837 13.9245 54.938 13.5973 54.938 13.2399C54.938 12.8849 54.8837 12.5589 54.7751 12.2619C54.6688 11.9625 54.5046 11.7222 54.2824 11.5411C54.0603 11.36 53.7802 11.2695 53.4421 11.2695C53.1016 11.2695 52.8191 11.36 52.5945 11.5411C52.3724 11.7222 52.2069 11.9625 52.0983 12.2619C51.992 12.5589 51.9388 12.8849 51.9388 13.2399C51.9388 13.5973 51.992 13.9245 52.0983 14.2215C52.2069 14.5185 52.3724 14.7564 52.5945 14.9351C52.8191 15.1138 53.1016 15.2031 53.4421 15.2031ZM57.2408 16V10.4364H58.3021V11.2984H58.3565C58.441 11.0259 58.598 10.8026 58.8275 10.6284C59.0594 10.4542 59.3482 10.3671 59.6938 10.3671C59.7614 10.3671 59.8411 10.3695 59.9329 10.3743C60.0271 10.3791 60.1006 10.3851 60.1538 10.3923V11.4143C60.1104 11.4023 60.0331 11.389 59.922 11.3745C59.8109 11.3576 59.6986 11.3491 59.5851 11.3491C59.3291 11.3491 59.1009 11.4035 58.9006 11.5121C58.7026 11.6184 58.5457 11.7669 58.4297 11.9577C58.3138 12.146 58.2559 12.3609 58.2559 12.6024V16H57.2408ZM63.1123 16.1123C62.5907 16.1123 62.1355 15.9928 61.7467 15.7537C61.3579 15.5146 61.0561 15.1802 60.8412 14.7504C60.6263 14.3205 60.5188 13.8183 60.5188 13.2435C60.5188 12.6664 60.6263 12.1617 60.8412 11.7295C61.0561 11.2972 61.3579 10.9616 61.7467 10.7225C62.1355 10.4835 62.5907 10.3639 63.1123 10.3639C63.6339 10.3639 64.0891 10.4835 64.4778 10.7225C64.8666 10.9616 65.1685 11.2972 65.3834 11.7295C65.5983 12.1617 65.7057 12.6664 65.7057 13.2435C65.7057 13.8183 65.5983 14.3205 65.3834 14.7504C65.1685 15.1802 64.8666 15.5146 64.4778 15.7537C64.0891 15.9928 63.6339 16.1123 63.1123 16.1123ZM63.1159 15.2031C63.454 15.2031 63.7341 15.1138 63.9562 14.9351C64.1784 14.7564 64.3426 14.5185 64.4489 14.2215C64.5575 13.9245 64.6118 13.5973 64.6118 13.2399C64.6118 12.8849 64.5575 12.5589 64.4489 12.2619C64.3426 11.9625 64.1784 11.7222 63.9562 11.5411C63.7341 11.36 63.454 11.2695 63.1159 11.2695C62.7754 11.2695 62.4929 11.36 62.2683 11.5411C62.0462 11.7222 61.8807 11.9625 61.7721 12.2619C61.6658 12.5589 61.6126 12.8849 61.6126 13.2399C61.6126 13.5973 61.6658 13.9245 61.7721 14.2215C61.8807 14.5185 62.0462 14.7564 62.2683 14.9351C62.4929 15.1138 62.7754 15.2031 63.1159 15.2031ZM67.2676 16V10.4364H68.3144V11.3202H68.3724C68.4738 11.0207 68.6525 10.7853 68.9085 10.6138C69.1668 10.44 69.459 10.3531 69.785 10.3531C69.8526 10.3531 69.9323 10.3555 70.0241 10.3603C70.1183 10.3651 70.1919 10.3712 70.245 10.3784V11.4143C70.2016 11.4023 70.1243 11.389 70.0132 11.3745C69.9021 11.3576 69.791 11.3491 69.6799 11.3491C69.4239 11.3491 69.1958 11.4035 68.9954 11.5121C68.7974 11.6184 68.6404 11.7669 68.5245 11.9577C68.4086 12.146 68.3506 12.3609 68.3506 12.6024V16H67.2676Z" fill="#92400E"/>
</svg>
