<svg width="16" height="16" viewBox="0 0 16 16" fill="none" xmlns="http://www.w3.org/2000/svg">
<path d="M7.33334 4.66669L5.33334 8.00002H8.00001L6.00001 11.3334" stroke="#2563EB" stroke-width="2" stroke-linecap="round" stroke-linejoin="round"/>
<path d="M9.90399 4H10.6667C11.0203 4 11.3594 4.14048 11.6095 4.39052C11.8595 4.64057 12 4.97971 12 5.33333V10.6667C12 11.0203 11.8595 11.3594 11.6095 11.6095C11.3594 11.8595 11.0203 12 10.6667 12H8.70999" stroke="#2563EB" stroke-width="2" stroke-linecap="round" stroke-linejoin="round"/>
<path d="M14.6667 9.33335V6.66669" stroke="#2563EB" stroke-width="2" stroke-linecap="round" stroke-linejoin="round"/>
<path d="M3.42668 12H2.66668C2.31305 12 1.97392 11.8595 1.72387 11.6095C1.47382 11.3594 1.33334 11.0203 1.33334 10.6667V5.33333C1.33334 4.97971 1.47382 4.64057 1.72387 4.39052C1.97392 4.14048 2.31305 4 2.66668 4H4.62401" stroke="#2563EB" stroke-width="2" stroke-linecap="round" stroke-linejoin="round"/>
</svg>
