<svg width="80" height="24" viewBox="0 0 80 24" fill="none" xmlns="http://www.w3.org/2000/svg">
<path d="M0 12C0 6.47715 4.47715 2 10 2H70C75.5229 2 80 6.47715 80 12C80 17.5228 75.5229 22 70 22H10C4.47715 22 0 17.5228 0 12Z" fill="#FEF9C3"/>
<path d="M18 9.5H21V12.5" stroke="#854D0E" stroke-width="2" stroke-linecap="round" stroke-linejoin="round"/>
<path d="M21 9.5L16.75 13.75L14.25 11.25L11 14.5" stroke="#854D0E" stroke-width="2" stroke-linecap="round" stroke-linejoin="round"/>
<path d="M26.815 16V8.58182H29.4592C30.0363 8.58182 30.5144 8.68686 30.8935 8.89695C31.2727 9.10703 31.5564 9.39439 31.7447 9.75902C31.9331 10.1212 32.0273 10.5293 32.0273 10.9833C32.0273 11.4397 31.9319 11.8502 31.7411 12.2148C31.5528 12.5771 31.2678 12.8644 30.8863 13.0769C30.5072 13.287 30.0303 13.392 29.4555 13.392H27.6372V12.443H29.3541C29.7188 12.443 30.0146 12.3803 30.2415 12.2547C30.4685 12.1267 30.6352 11.9528 30.7414 11.7331C30.8477 11.5134 30.9008 11.2634 30.9008 10.9833C30.9008 10.7032 30.8477 10.4545 30.7414 10.2371C30.6352 10.0198 30.4673 9.84957 30.2379 9.72642C30.0109 9.60327 29.7115 9.54169 29.3396 9.54169H27.9342V16H26.815ZM35.5263 16.1123C35.0047 16.1123 34.5495 15.9928 34.1607 15.7537C33.7719 15.5146 33.4701 15.1802 33.2552 14.7504C33.0403 14.3205 32.9328 13.8183 32.9328 13.2435C32.9328 12.6664 33.0403 12.1617 33.2552 11.7295C33.4701 11.2972 33.7719 10.9616 34.1607 10.7225C34.5495 10.4835 35.0047 10.3639 35.5263 10.3639C36.0479 10.3639 36.5031 10.4835 36.8918 10.7225C37.2806 10.9616 37.5825 11.2972 37.7974 11.7295C38.0123 12.1617 38.1197 12.6664 38.1197 13.2435C38.1197 13.8183 38.0123 14.3205 37.7974 14.7504C37.5825 15.1802 37.2806 15.5146 36.8918 15.7537C36.5031 15.9928 36.0479 16.1123 35.5263 16.1123ZM35.5299 15.2031C35.868 15.2031 36.1481 15.1138 36.3702 14.9351C36.5924 14.7564 36.7566 14.5185 36.8629 14.2215C36.9715 13.9245 37.0259 13.5973 37.0259 13.2399C37.0259 12.8849 36.9715 12.5589 36.8629 12.2619C36.7566 11.9625 36.5924 11.7222 36.3702 11.5411C36.1481 11.36 35.868 11.2695 35.5299 11.2695C35.1894 11.2695 34.9069 11.36 34.6823 11.5411C34.4602 11.7222 34.2947 11.9625 34.1861 12.2619C34.0798 12.5589 34.0267 12.8849 34.0267 13.2399C34.0267 13.5973 34.0798 13.9245 34.1861 14.2215C34.2947 14.5185 34.4602 14.7564 34.6823 14.9351C34.9069 15.1138 35.1894 15.2031 35.5299 15.2031ZM39.3286 18.0864V10.4364H40.3863V11.3383H40.4769C40.5396 11.2224 40.6302 11.0884 40.7485 10.9362C40.8669 10.7841 41.0311 10.6513 41.2411 10.5378C41.4512 10.4219 41.7289 10.3639 42.0742 10.3639C42.5234 10.3639 42.9242 10.4774 43.2768 10.7044C43.6294 10.9314 43.9058 11.2586 44.1063 11.686C44.3091 12.1134 44.4105 12.6278 44.4105 13.229C44.4105 13.8303 44.3103 14.3459 44.1099 14.7757C43.9095 15.2031 43.6342 15.5327 43.284 15.7646C42.9339 15.994 42.5343 16.1087 42.0851 16.1087C41.747 16.1087 41.4705 16.0519 41.2556 15.9384C41.0431 15.8249 40.8765 15.6921 40.7558 15.54C40.635 15.3879 40.5421 15.2526 40.4769 15.1343H40.4117V18.0864H39.3286ZM40.3899 13.2182C40.3899 13.6094 40.4467 13.9523 40.5602 14.2469C40.6737 14.5415 40.8379 14.7721 41.0528 14.9387C41.2677 15.1029 41.5309 15.185 41.8424 15.185C42.166 15.185 42.4365 15.0993 42.6538 14.9278C42.8711 14.754 43.0353 14.5185 43.1464 14.2215C43.2599 13.9245 43.3166 13.5901 43.3166 13.2182C43.3166 12.8511 43.2611 12.5215 43.15 12.2293C43.0414 11.9371 42.8771 11.7065 42.6574 11.5375C42.4401 11.3685 42.1684 11.2839 41.8424 11.2839C41.5285 11.2839 41.2629 11.3648 41.0455 11.5266C40.8306 11.6884 40.6676 11.9142 40.5566 12.204C40.4455 12.4937 40.3899 12.8318 40.3899 13.2182ZM49.1483 13.6927V10.4364H50.235V16H49.17V15.0365H49.1121C48.9841 15.3335 48.7789 15.581 48.4963 15.779C48.2162 15.9746 47.8673 16.0724 47.4495 16.0724C47.0921 16.0724 46.7758 15.994 46.5005 15.837C46.2276 15.6776 46.0127 15.4422 45.8558 15.1307C45.7012 14.8192 45.624 14.434 45.624 13.9752V10.4364H46.707V13.8448C46.707 14.2239 46.812 14.5258 47.0221 14.7504C47.2322 14.9749 47.5051 15.0872 47.8407 15.0872C48.0436 15.0872 48.2452 15.0365 48.4456 14.9351C48.6485 14.8337 48.8163 14.6803 48.9491 14.4751C49.0843 14.2698 49.1507 14.009 49.1483 13.6927ZM52.7732 8.58182V16H51.6902V8.58182H52.7732ZM55.8493 16.1232C55.4967 16.1232 55.178 16.058 54.8931 15.9276C54.6081 15.7947 54.3823 15.6028 54.2157 15.3516C54.0515 15.1005 53.9694 14.7926 53.9694 14.428C53.9694 14.1141 54.0298 13.8557 54.1505 13.6528C54.2713 13.45 54.4342 13.2894 54.6395 13.1711C54.8448 13.0528 55.0742 12.9634 55.3277 12.9031C55.5813 12.8427 55.8396 12.7968 56.1029 12.7654C56.4361 12.7268 56.7066 12.6954 56.9142 12.6712C57.1219 12.6447 57.2728 12.6024 57.367 12.5445C57.4612 12.4865 57.5083 12.3923 57.5083 12.2619V12.2366C57.5083 11.9202 57.4189 11.6751 57.2402 11.5013C57.0639 11.3274 56.8007 11.2405 56.4506 11.2405C56.086 11.2405 55.7986 11.3214 55.5885 11.4832C55.3808 11.6425 55.2372 11.82 55.1575 12.0156L54.1396 11.7838C54.2604 11.4457 54.4367 11.1729 54.6685 10.9652C54.9027 10.7551 55.172 10.603 55.4762 10.5088C55.7805 10.4122 56.1004 10.3639 56.4361 10.3639C56.6583 10.3639 56.8937 10.3905 57.1424 10.4436C57.3936 10.4943 57.6278 10.5885 57.8451 10.7261C58.0649 10.8638 58.2448 11.0606 58.3848 11.3165C58.5249 11.5701 58.5949 11.8997 58.5949 12.3054V16H57.5372V15.2393H57.4938C57.4237 15.3794 57.3187 15.517 57.1786 15.6523C57.0386 15.7875 56.8587 15.8998 56.6389 15.9891C56.4192 16.0785 56.156 16.1232 55.8493 16.1232ZM56.0847 15.2538C56.3842 15.2538 56.6401 15.1947 56.8526 15.0763C57.0676 14.958 57.2306 14.8035 57.3416 14.6127C57.4551 14.4195 57.5119 14.2131 57.5119 13.9933V13.2761C57.4732 13.3148 57.3984 13.351 57.2873 13.3848C57.1786 13.4162 57.0543 13.444 56.9142 13.4681C56.7742 13.4898 56.6377 13.5104 56.5049 13.5297C56.3721 13.5466 56.261 13.5611 56.1717 13.5732C55.9616 13.5997 55.7696 13.6444 55.5958 13.7072C55.4243 13.77 55.2867 13.8605 55.1828 13.9788C55.0814 14.0947 55.0307 14.2493 55.0307 14.4425C55.0307 14.7105 55.1297 14.9134 55.3277 15.051C55.5257 15.1862 55.7781 15.2538 56.0847 15.2538ZM60.0374 16V10.4364H61.0842V11.3202H61.1422C61.2436 11.0207 61.4223 10.7853 61.6783 10.6138C61.9366 10.44 62.2288 10.3531 62.5548 10.3531C62.6224 10.3531 62.7021 10.3555 62.7939 10.3603C62.8881 10.3651 62.9617 10.3712 63.0148 10.3784V11.4143C62.9714 11.4023 62.8941 11.389 62.783 11.3745C62.6719 11.3576 62.5609 11.3491 62.4498 11.3491C62.1938 11.3491 61.9656 11.4035 61.7652 11.5121C61.5672 11.6184 61.4102 11.7669 61.2943 11.9577C61.1784 12.146 61.1205 12.3609 61.1205 12.6024V16H60.0374Z" fill="#854D0E"/>
</svg>
