<svg width="89" height="20" viewBox="0 0 89 20" fill="none" xmlns="http://www.w3.org/2000/svg">
<path d="M0.984375 10C0.984375 4.47715 5.46153 0 10.9844 0H79C84.5229 0 89 4.47715 89 10C89 15.5228 84.5229 20 79 20H10.9844C5.46153 20 0.984375 15.5228 0.984375 10Z" fill="#DBEAFE"/>
<g clip-path="url(#clip0_13_128)">
<path d="M12.9844 11C12.8898 11.0003 12.797 10.9738 12.7169 10.9235C12.6367 10.8732 12.5725 10.8012 12.5316 10.7158C12.4908 10.6305 12.475 10.5353 12.4861 10.4413C12.4972 10.3474 12.5348 10.2585 12.5944 10.185L17.5444 5.08502C17.5815 5.04216 17.6321 5.0132 17.6879 5.00289C17.7436 4.99258 17.8012 5.00153 17.8512 5.02827C17.9012 5.05502 17.9407 5.09797 17.963 5.15007C17.9854 5.20218 17.9894 5.26034 17.9744 5.31502L17.0144 8.32502C16.9861 8.40078 16.9766 8.48228 16.9867 8.56252C16.9968 8.64277 17.0262 8.71936 17.0724 8.78573C17.1186 8.85211 17.1803 8.90628 17.252 8.9436C17.3238 8.98092 17.4035 9.00028 17.4844 9.00002H20.9844C21.079 8.9997 21.1718 9.02623 21.2519 9.07653C21.332 9.12683 21.3963 9.19884 21.4371 9.28419C21.4779 9.36954 21.4937 9.46473 21.4826 9.55869C21.4715 9.65266 21.434 9.74154 21.3744 9.81502L16.4244 14.915C16.3872 14.9579 16.3366 14.9868 16.2809 14.9972C16.2251 15.0075 16.1675 14.9985 16.1175 14.9718C16.0675 14.945 16.0281 14.9021 16.0057 14.85C15.9833 14.7979 15.9793 14.7397 15.9944 14.685L16.9544 11.675C16.9827 11.5993 16.9922 11.5178 16.9821 11.4375C16.972 11.3573 16.9425 11.2807 16.8963 11.2143C16.8501 11.1479 16.7885 11.0938 16.7167 11.0564C16.645 11.0191 16.5653 10.9998 16.4844 11H12.9844Z" stroke="#1E40AF" stroke-width="2" stroke-linecap="round" stroke-linejoin="round"/>
</g>
<path d="M27.7994 14V6.58182H32.3995V7.54531H28.9186V9.80554H32.0699V10.7654H28.9186V14H27.7994ZM35.2882 14.1232C34.9356 14.1232 34.6169 14.058 34.3319 13.9276C34.047 13.7947 33.8212 13.6028 33.6546 13.3516C33.4904 13.1005 33.4083 12.7926 33.4083 12.428C33.4083 12.1141 33.4686 11.8557 33.5894 11.6528C33.7101 11.45 33.8731 11.2894 34.0784 11.1711C34.2836 11.0528 34.513 10.9634 34.7666 10.9031C35.0201 10.8427 35.2785 10.7968 35.5417 10.7654C35.875 10.7268 36.1454 10.6954 36.3531 10.6712C36.5608 10.6447 36.7117 10.6024 36.8059 10.5445C36.9 10.4865 36.9471 10.3923 36.9471 10.2619V10.2366C36.9471 9.92024 36.8578 9.67514 36.6791 9.50128C36.5028 9.32741 36.2396 9.24048 35.8895 9.24048C35.5248 9.24048 35.2375 9.32138 35.0274 9.48317C34.8197 9.64254 34.676 9.82003 34.5963 10.0156L33.5785 9.78381C33.6993 9.44574 33.8755 9.17287 34.1074 8.9652C34.3416 8.75511 34.6108 8.60298 34.9151 8.50881C35.2194 8.41222 35.5393 8.36392 35.875 8.36392C36.0971 8.36392 36.3326 8.39048 36.5813 8.44361C36.8324 8.49432 37.0667 8.58849 37.284 8.72614C37.5037 8.86378 37.6836 9.06058 37.8237 9.31655C37.9637 9.5701 38.0338 9.89972 38.0338 10.3054V14H36.9761V13.2393H36.9326C36.8626 13.3794 36.7576 13.517 36.6175 13.6523C36.4775 13.7875 36.2975 13.8998 36.0778 13.9891C35.8581 14.0785 35.5949 14.1232 35.2882 14.1232ZM35.5236 13.2538C35.823 13.2538 36.079 13.1947 36.2915 13.0763C36.5064 12.958 36.6694 12.8035 36.7805 12.6127C36.894 12.4195 36.9507 12.2131 36.9507 11.9933V11.2761C36.9121 11.3148 36.8373 11.351 36.7262 11.3848C36.6175 11.4162 36.4931 11.444 36.3531 11.4681C36.213 11.4898 36.0766 11.5104 35.9438 11.5297C35.811 11.5466 35.6999 11.5611 35.6105 11.5732C35.4005 11.5997 35.2085 11.6444 35.0346 11.7072C34.8632 11.77 34.7255 11.8605 34.6217 11.9788C34.5203 12.0947 34.4696 12.2493 34.4696 12.4425C34.4696 12.7105 34.5686 12.9134 34.7666 13.051C34.9646 13.1862 35.2169 13.2538 35.5236 13.2538ZM43.6454 9.79467L42.6638 9.96854C42.6227 9.84297 42.5575 9.72344 42.4682 9.60994C42.3813 9.49645 42.2629 9.40348 42.1132 9.33104C41.9635 9.25859 41.7764 9.22237 41.5518 9.22237C41.2451 9.22237 40.9892 9.29119 40.7839 9.42884C40.5786 9.56406 40.476 9.73913 40.476 9.95405C40.476 10.14 40.5448 10.2897 40.6825 10.4032C40.8201 10.5167 41.0423 10.6097 41.349 10.6821L42.2328 10.8849C42.7447 11.0033 43.1262 11.1856 43.3774 11.4319C43.6285 11.6782 43.7541 11.9982 43.7541 12.3918C43.7541 12.725 43.6575 13.022 43.4643 13.2828C43.2735 13.5412 43.0067 13.744 42.6638 13.8913C42.3233 14.0386 41.9285 14.1123 41.4794 14.1123C40.8563 14.1123 40.348 13.9795 39.9544 13.7138C39.5608 13.4458 39.3193 13.0655 39.23 12.5729L40.2768 12.4135C40.342 12.6864 40.476 12.8928 40.6789 13.0329C40.8817 13.1705 41.1461 13.2393 41.4721 13.2393C41.8271 13.2393 42.1108 13.1657 42.3233 13.0184C42.5358 12.8687 42.6421 12.6864 42.6421 12.4714C42.6421 12.2976 42.5769 12.1515 42.4465 12.0332C42.3185 11.9148 42.1217 11.8255 41.8561 11.7651L40.9143 11.5587C40.3951 11.4403 40.0112 11.252 39.7624 10.9936C39.5161 10.7352 39.393 10.408 39.393 10.012C39.393 9.68359 39.4847 9.39624 39.6683 9.14993C39.8518 8.90362 40.1053 8.71165 40.4289 8.57401C40.7525 8.43395 41.1232 8.36392 41.5409 8.36392C42.1422 8.36392 42.6155 8.49432 42.9608 8.75511C43.3061 9.01349 43.5343 9.36001 43.6454 9.79467ZM47.5419 8.43636V9.30568H44.5029V8.43636H47.5419ZM45.3179 7.10341H46.401V12.3664C46.401 12.5765 46.4324 12.7347 46.4951 12.8409C46.5579 12.9447 46.6388 13.016 46.7378 13.0546C46.8392 13.0908 46.9491 13.1089 47.0674 13.1089C47.1544 13.1089 47.2304 13.1029 47.2956 13.0908C47.3608 13.0788 47.4115 13.0691 47.4478 13.0619L47.6434 13.9565C47.5806 13.9807 47.4912 14.0048 47.3753 14.029C47.2594 14.0555 47.1145 14.07 46.9407 14.0724C46.6557 14.0773 46.3901 14.0266 46.1438 13.9203C45.8975 13.8141 45.6983 13.6499 45.5461 13.4277C45.394 13.2055 45.3179 12.9266 45.3179 12.591V7.10341ZM55.5723 8.53054C55.5336 8.18764 55.3743 7.92202 55.0941 7.73366C54.814 7.5429 54.4615 7.44751 54.0365 7.44751C53.7322 7.44751 53.469 7.49581 53.2468 7.5924C53.0247 7.68658 52.852 7.81697 52.7289 7.98359C52.6081 8.1478 52.5478 8.33494 52.5478 8.54503C52.5478 8.72131 52.5888 8.87344 52.6709 9.00142C52.7554 9.1294 52.8653 9.23686 53.0005 9.32379C53.1382 9.40831 53.2855 9.47955 53.4424 9.5375C53.5994 9.59304 53.7503 9.63892 53.8952 9.67514L54.6196 9.86349C54.8563 9.92145 55.099 9.99993 55.3477 10.0989C55.5964 10.1979 55.827 10.3283 56.0395 10.4901C56.252 10.6519 56.4235 10.8523 56.5539 11.0914C56.6867 11.3305 56.7531 11.6166 56.7531 11.9499C56.7531 12.37 56.6444 12.7431 56.4271 13.0691C56.2122 13.3951 55.8995 13.6523 55.489 13.8406C55.0809 14.029 54.587 14.1232 54.0075 14.1232C53.4521 14.1232 52.9716 14.035 52.5659 13.8587C52.1602 13.6825 51.8426 13.4325 51.6132 13.1089C51.3838 12.783 51.2571 12.3966 51.2329 11.9499H52.3558C52.3775 12.2179 52.4645 12.4413 52.6166 12.62C52.7711 12.7962 52.9679 12.9278 53.207 13.0148C53.4485 13.0993 53.7129 13.1415 54.0002 13.1415C54.3166 13.1415 54.5979 13.092 54.8442 12.993C55.0929 12.8916 55.2885 12.7516 55.431 12.5729C55.5735 12.3918 55.6447 12.1805 55.6447 11.939C55.6447 11.7192 55.5819 11.5393 55.4564 11.3993C55.3332 11.2592 55.1654 11.1433 54.9529 11.0516C54.7428 10.9598 54.5049 10.8789 54.2393 10.8089L53.3627 10.5698C52.7687 10.408 52.2978 10.1702 51.9501 9.85625C51.6048 9.54233 51.4321 9.12699 51.4321 8.61023C51.4321 8.18281 51.548 7.80973 51.7799 7.49098C52.0117 7.17223 52.3256 6.92472 52.7216 6.74844C53.1176 6.56974 53.5644 6.4804 54.0618 6.4804C54.5641 6.4804 55.0072 6.56854 55.3912 6.74482C55.7775 6.92109 56.0818 7.16378 56.3039 7.47287C56.5261 7.77955 56.642 8.1321 56.6517 8.53054H55.5723ZM59.6227 14.1232C59.2702 14.1232 58.9514 14.058 58.6665 13.9276C58.3816 13.7947 58.1558 13.6028 57.9892 13.3516C57.8249 13.1005 57.7428 12.7926 57.7428 12.428C57.7428 12.1141 57.8032 11.8557 57.924 11.6528C58.0447 11.45 58.2077 11.2894 58.4129 11.1711C58.6182 11.0528 58.8476 10.9634 59.1012 10.9031C59.3547 10.8427 59.6131 10.7968 59.8763 10.7654C60.2095 10.7268 60.48 10.6954 60.6877 10.6712C60.8953 10.6447 61.0463 10.6024 61.1404 10.5445C61.2346 10.4865 61.2817 10.3923 61.2817 10.2619V10.2366C61.2817 9.92024 61.1923 9.67514 61.0137 9.50128C60.8374 9.32741 60.5742 9.24048 60.224 9.24048C59.8594 9.24048 59.572 9.32138 59.3619 9.48317C59.1543 9.64254 59.0106 9.82003 58.9309 10.0156L57.9131 9.78381C58.0338 9.44574 58.2101 9.17287 58.4419 8.9652C58.6762 8.75511 58.9454 8.60298 59.2497 8.50881C59.5539 8.41222 59.8739 8.36392 60.2095 8.36392C60.4317 8.36392 60.6671 8.39048 60.9159 8.44361C61.167 8.49432 61.4012 8.58849 61.6186 8.72614C61.8383 8.86378 62.0182 9.06058 62.1583 9.31655C62.2983 9.5701 62.3683 9.89972 62.3683 10.3054V14H61.3107V13.2393H61.2672C61.1972 13.3794 61.0921 13.517 60.9521 13.6523C60.812 13.7875 60.6321 13.8998 60.4124 13.9891C60.1926 14.0785 59.9294 14.1232 59.6227 14.1232ZM59.8582 13.2538C60.1576 13.2538 60.4136 13.1947 60.6261 13.0763C60.841 12.958 61.004 12.8035 61.1151 12.6127C61.2286 12.4195 61.2853 12.2131 61.2853 11.9933V11.2761C61.2467 11.3148 61.1718 11.351 61.0607 11.3848C60.9521 11.4162 60.8277 11.444 60.6877 11.4681C60.5476 11.4898 60.4112 11.5104 60.2784 11.5297C60.1455 11.5466 60.0345 11.5611 59.9451 11.5732C59.735 11.5997 59.5431 11.6444 59.3692 11.7072C59.1977 11.77 59.0601 11.8605 58.9563 11.9788C58.8548 12.0947 58.8041 12.2493 58.8041 12.4425C58.8041 12.7105 58.9031 12.9134 59.1012 13.051C59.2992 13.1862 59.5515 13.2538 59.8582 13.2538ZM64.8939 6.58182V14H63.8109V6.58182H64.8939ZM68.7488 14.1123C68.2006 14.1123 67.7285 13.9952 67.3325 13.7609C66.9389 13.5243 66.6346 13.1923 66.4197 12.7648C66.2072 12.335 66.101 11.8315 66.101 11.2544C66.101 10.6845 66.2072 10.1822 66.4197 9.74759C66.6346 9.31293 66.9341 8.97365 67.318 8.72976C67.7044 8.48587 68.1559 8.36392 68.6727 8.36392C68.9866 8.36392 69.2909 8.41584 69.5855 8.51967C69.8801 8.62351 70.1445 8.78651 70.3787 9.00866C70.613 9.23082 70.7977 9.51939 70.9329 9.87436C71.0682 10.2269 71.1358 10.6555 71.1358 11.1602V11.5442H66.7131V10.7328H70.0745C70.0745 10.4479 70.0165 10.1955 69.9006 9.97578C69.7847 9.75362 69.6217 9.57855 69.4116 9.45057C69.204 9.32259 68.9601 9.25859 68.68 9.25859C68.3757 9.25859 68.1101 9.33345 67.8831 9.48317C67.6585 9.63047 67.4846 9.82365 67.3615 10.0627C67.2408 10.2994 67.1804 10.5565 67.1804 10.8342V11.4681C67.1804 11.84 67.2456 12.1563 67.376 12.4171C67.5088 12.6779 67.6935 12.8771 67.9302 13.0148C68.1668 13.15 68.4433 13.2176 68.7596 13.2176C68.9649 13.2176 69.152 13.1886 69.3211 13.1307C69.4901 13.0703 69.6362 12.981 69.7594 12.8626C69.8825 12.7443 69.9767 12.5982 70.0419 12.4244L71.067 12.6091C70.9849 12.9109 70.8376 13.1754 70.6251 13.4023C70.415 13.6269 70.1506 13.802 69.8318 13.9276C69.5155 14.0507 69.1545 14.1123 68.7488 14.1123Z" fill="#1E40AF"/>
<defs>
<clipPath id="clip0_13_128">
<rect width="12" height="12" fill="white" transform="translate(10.9844 4)"/>
</clipPath>
</defs>
</svg>
