<svg width="17" height="16" viewBox="0 0 17 16" fill="none" xmlns="http://www.w3.org/2000/svg">
<g clip-path="url(#clip0_13_119)">
<path d="M8.01146 1.52997C8.04068 1.47094 8.08581 1.42126 8.14176 1.38652C8.19772 1.35178 8.26227 1.33337 8.32813 1.33337C8.39399 1.33337 8.45854 1.35178 8.51449 1.38652C8.57045 1.42126 8.61558 1.47094 8.6448 1.52997L10.1848 4.6493C10.2862 4.85461 10.436 5.03224 10.6212 5.16694C10.8064 5.30164 11.0215 5.38938 11.2481 5.42264L14.6921 5.92664C14.7574 5.93609 14.8187 5.96362 14.8691 6.0061C14.9196 6.04859 14.9571 6.10434 14.9775 6.16704C14.9979 6.22975 15.0003 6.29691 14.9845 6.36093C14.9687 6.42495 14.9353 6.48327 14.8881 6.5293L12.3975 8.95464C12.2332 9.1147 12.1103 9.31229 12.0394 9.53039C11.9684 9.74849 11.9515 9.98056 11.9901 10.2066L12.5781 13.6333C12.5896 13.6985 12.5826 13.7657 12.5578 13.8271C12.533 13.8885 12.4914 13.9417 12.4378 13.9806C12.3842 14.0196 12.3208 14.0426 12.2547 14.0472C12.1886 14.0518 12.1226 14.0378 12.0641 14.0066L8.98546 12.388C8.78261 12.2815 8.55692 12.2258 8.3278 12.2258C8.09868 12.2258 7.87298 12.2815 7.67013 12.388L4.59213 14.0066C4.53368 14.0376 4.46773 14.0515 4.40176 14.0468C4.3358 14.0421 4.27248 14.019 4.21899 13.9801C4.16551 13.9412 4.12402 13.8881 4.09923 13.8268C4.07445 13.7655 4.06737 13.6984 4.0788 13.6333L4.66613 10.2073C4.70493 9.98112 4.68812 9.7489 4.61715 9.53067C4.54619 9.31243 4.4232 9.11474 4.2588 8.95464L1.76813 6.52997C1.72053 6.48399 1.68679 6.42557 1.67077 6.36135C1.65475 6.29714 1.65709 6.22972 1.67752 6.16676C1.69794 6.10381 1.73564 6.04786 1.78631 6.00529C1.83699 5.96272 1.8986 5.93524 1.96413 5.92597L5.40746 5.42264C5.6343 5.38964 5.84972 5.30201 6.03519 5.16729C6.22065 5.03258 6.3706 4.85482 6.47213 4.6493L8.01146 1.52997Z" stroke="#EAB308" stroke-width="2" stroke-linecap="round" stroke-linejoin="round"/>
</g>
<defs>
<clipPath id="clip0_13_119">
<rect width="16" height="16" fill="white" transform="translate(0.328125)"/>
</clipPath>
</defs>
</svg>
