<svg width="81" height="20" viewBox="0 0 81 20" fill="none" xmlns="http://www.w3.org/2000/svg">
<path d="M0.25 10C0.25 4.47715 4.72715 0 10.25 0H71C76.5229 0 81 4.47715 81 10C81 15.5228 76.5229 20 71 20H10.25C4.72715 20 0.25 15.5228 0.25 10Z" fill="#DCFCE7"/>
<g clip-path="url(#clip0_13_94)">
<path d="M21.1505 8.99999C21.3788 10.1206 21.2161 11.2857 20.6894 12.3009C20.1627 13.3161 19.3039 14.12 18.2562 14.5787C17.2086 15.0373 16.0353 15.1229 14.9321 14.8212C13.829 14.5195 12.8626 13.8487 12.1941 12.9207C11.5257 11.9927 11.1955 10.8636 11.2588 9.72169C11.3221 8.57976 11.7749 7.49404 12.5418 6.64558C13.3087 5.79712 14.3433 5.23721 15.473 5.05922C16.6028 4.88123 17.7594 5.09592 18.75 5.66749" stroke="#166534" stroke-width="2" stroke-linecap="round" stroke-linejoin="round"/>
<path d="M14.75 9.5L16.25 11L21.25 6" stroke="#166534" stroke-width="2" stroke-linecap="round" stroke-linejoin="round"/>
</g>
<path d="M27.7134 6.58182L29.778 12.6236H29.8613L31.9259 6.58182H33.1357L30.4662 14H29.1731L26.5036 6.58182H27.7134ZM35.9601 14.1123C35.4119 14.1123 34.9399 13.9952 34.5438 13.7609C34.1502 13.5243 33.846 13.1923 33.6311 12.7648C33.4186 12.335 33.3123 11.8315 33.3123 11.2544C33.3123 10.6845 33.4186 10.1822 33.6311 9.74759C33.846 9.31293 34.1454 8.97365 34.5293 8.72976C34.9157 8.48587 35.3673 8.36392 35.884 8.36392C36.198 8.36392 36.5022 8.41584 36.7968 8.51967C37.0914 8.62351 37.3558 8.78651 37.5901 9.00866C37.8243 9.23082 38.009 9.51939 38.1443 9.87436C38.2795 10.2269 38.3471 10.6555 38.3471 11.1602V11.5442H33.9244V10.7328H37.2858C37.2858 10.4479 37.2279 10.1955 37.1119 9.97578C36.996 9.75362 36.833 9.57855 36.623 9.45057C36.4153 9.32259 36.1714 9.25859 35.8913 9.25859C35.587 9.25859 35.3214 9.33345 35.0944 9.48317C34.8698 9.63047 34.696 9.82365 34.5728 10.0627C34.4521 10.2994 34.3917 10.5565 34.3917 10.8342V11.4681C34.3917 11.84 34.4569 12.1563 34.5873 12.4171C34.7201 12.6779 34.9048 12.8771 35.1415 13.0148C35.3781 13.15 35.6546 13.2176 35.971 13.2176C36.1762 13.2176 36.3634 13.1886 36.5324 13.1307C36.7014 13.0703 36.8475 12.981 36.9707 12.8626C37.0938 12.7443 37.188 12.5982 37.2532 12.4244L38.2783 12.6091C38.1962 12.9109 38.0489 13.1754 37.8364 13.4023C37.6263 13.6269 37.3619 13.802 37.0431 13.9276C36.7268 14.0507 36.3658 14.1123 35.9601 14.1123ZM39.5488 14V8.43636H40.5956V9.32017H40.6535C40.7549 9.02074 40.9336 8.7853 41.1896 8.61385C41.448 8.43999 41.7402 8.35305 42.0662 8.35305C42.1338 8.35305 42.2135 8.35547 42.3052 8.3603C42.3994 8.36513 42.473 8.37116 42.5262 8.37841V9.41435C42.4827 9.40227 42.4054 9.38899 42.2944 9.3745C42.1833 9.3576 42.0722 9.34915 41.9611 9.34915C41.7051 9.34915 41.477 9.40348 41.2765 9.51214C41.0785 9.61839 40.9216 9.7669 40.8056 9.95767C40.6897 10.146 40.6318 10.3609 40.6318 10.6024V14H39.5488ZM43.4634 14V8.43636H44.5464V14H43.4634ZM44.0104 7.57791C43.822 7.57791 43.6602 7.51513 43.525 7.38956C43.3922 7.26158 43.3258 7.10945 43.3258 6.93317C43.3258 6.75447 43.3922 6.60234 43.525 6.47678C43.6602 6.34879 43.822 6.2848 44.0104 6.2848C44.1987 6.2848 44.3593 6.34879 44.4921 6.47678C44.6273 6.60234 44.6949 6.75447 44.6949 6.93317C44.6949 7.10945 44.6273 7.26158 44.4921 7.38956C44.3593 7.51513 44.1987 7.57791 44.0104 7.57791ZM48.6512 8.43636V9.30568H45.5072V8.43636H48.6512ZM46.3693 14V7.79162C46.3693 7.44389 46.4453 7.15533 46.5975 6.92592C46.7496 6.69411 46.9512 6.52145 47.2024 6.40795C47.4535 6.29205 47.7264 6.23409 48.021 6.23409C48.2383 6.23409 48.4243 6.2522 48.5788 6.28842C48.7333 6.32223 48.848 6.35362 48.9229 6.3826L48.6694 7.25916C48.6186 7.24467 48.5534 7.22777 48.4738 7.20845C48.3941 7.18672 48.2975 7.17585 48.184 7.17585C47.9208 7.17585 47.7324 7.24105 47.6189 7.37145C47.5078 7.50185 47.4523 7.6902 47.4523 7.93651V14H46.3693ZM49.7687 14V8.43636H50.8517V14H49.7687ZM50.3156 7.57791C50.1273 7.57791 49.9655 7.51513 49.8303 7.38956C49.6974 7.26158 49.631 7.10945 49.631 6.93317C49.631 6.75447 49.6974 6.60234 49.8303 6.47678C49.9655 6.34879 50.1273 6.2848 50.3156 6.2848C50.504 6.2848 50.6646 6.34879 50.7974 6.47678C50.9326 6.60234 51.0002 6.75447 51.0002 6.93317C51.0002 7.10945 50.9326 7.26158 50.7974 7.38956C50.6646 7.51513 50.504 7.57791 50.3156 7.57791ZM54.7066 14.1123C54.1584 14.1123 53.6863 13.9952 53.2903 13.7609C52.8967 13.5243 52.5925 13.1923 52.3775 12.7648C52.165 12.335 52.0588 11.8315 52.0588 11.2544C52.0588 10.6845 52.165 10.1822 52.3775 9.74759C52.5925 9.31293 52.8919 8.97365 53.2758 8.72976C53.6622 8.48587 54.1138 8.36392 54.6305 8.36392C54.9444 8.36392 55.2487 8.41584 55.5433 8.51967C55.8379 8.62351 56.1023 8.78651 56.3366 9.00866C56.5708 9.23082 56.7555 9.51939 56.8907 9.87436C57.026 10.2269 57.0936 10.6555 57.0936 11.1602V11.5442H52.6709V10.7328H56.0323C56.0323 10.4479 55.9743 10.1955 55.8584 9.97578C55.7425 9.75362 55.5795 9.57855 55.3694 9.45057C55.1618 9.32259 54.9179 9.25859 54.6378 9.25859C54.3335 9.25859 54.0679 9.33345 53.8409 9.48317C53.6163 9.63047 53.4425 9.82365 53.3193 10.0627C53.1986 10.2994 53.1382 10.5565 53.1382 10.8342V11.4681C53.1382 11.84 53.2034 12.1563 53.3338 12.4171C53.4666 12.6779 53.6513 12.8771 53.888 13.0148C54.1246 13.15 54.4011 13.2176 54.7175 13.2176C54.9227 13.2176 55.1099 13.1886 55.2789 13.1307C55.4479 13.0703 55.594 12.981 55.7172 12.8626C55.8403 12.7443 55.9345 12.5982 55.9997 12.4244L57.0248 12.6091C56.9427 12.9109 56.7954 13.1754 56.5829 13.4023C56.3728 13.6269 56.1084 13.802 55.7896 13.9276C55.4733 14.0507 55.1123 14.1123 54.7066 14.1123ZM60.378 14.1087C59.9288 14.1087 59.528 13.994 59.1754 13.7646C58.8253 13.5327 58.55 13.2031 58.3496 12.7757C58.1516 12.3459 58.0526 11.8303 58.0526 11.229C58.0526 10.6278 58.1528 10.1134 58.3532 9.68601C58.556 9.25859 58.8337 8.93139 59.1863 8.7044C59.5388 8.47741 59.9385 8.36392 60.3852 8.36392C60.7305 8.36392 61.0082 8.42188 61.2183 8.53778C61.4308 8.65128 61.595 8.78409 61.7109 8.93622C61.8293 9.08835 61.921 9.22237 61.9862 9.33828H62.0514V6.58182H63.1344V14H62.0768V13.1343H61.9862C61.921 13.2526 61.8268 13.3879 61.7037 13.54C61.583 13.6921 61.4163 13.8249 61.2038 13.9384C60.9913 14.0519 60.716 14.1087 60.378 14.1087ZM60.617 13.185C60.9285 13.185 61.1918 13.1029 61.4067 12.9387C61.624 12.7721 61.7882 12.5415 61.8993 12.2469C62.0128 11.9523 62.0695 11.6094 62.0695 11.2182C62.0695 10.8318 62.014 10.4937 61.9029 10.204C61.7918 9.9142 61.6288 9.68842 61.4139 9.52663C61.199 9.36484 60.9334 9.28395 60.617 9.28395C60.291 9.28395 60.0194 9.36847 59.8021 9.5375C59.5847 9.70653 59.4205 9.93714 59.3094 10.2293C59.2008 10.5215 59.1464 10.8511 59.1464 11.2182C59.1464 11.5901 59.202 11.9245 59.3131 12.2215C59.4241 12.5185 59.5884 12.754 59.8057 12.9278C60.0254 13.0993 60.2959 13.185 60.617 13.185Z" fill="#166534"/>
<defs>
<clipPath id="clip0_13_94">
<rect width="12" height="12" fill="white" transform="translate(10.25 4)"/>
</clipPath>
</defs>
</svg>
